<svg width="9" height="14" viewBox="0 0 9 14" fill="none" xmlns="http://www.w3.org/2000/svg">
<g clip-path="url(#clip0_827_675)">
<path d="M7.68055 1.75778C5.92349 -0.00278759 3.08471 -0.00630111 1.32492 1.74998C0.4419 2.63143 0 3.78381 0 4.93579V4.97483C0 9.96885 3.83695 13.2737 4.4998 13.8074C5.16265 13.2737 8.99961 9.96885 8.99961 4.97483V4.93579C8.99883 3.78732 8.55888 2.63846 7.68016 1.75818L7.68055 1.75778ZM6.1054 6.53905C5.21692 7.42831 3.78113 7.42636 2.89265 6.53475C2.00807 5.64666 2.0108 4.21634 2.89928 3.32942C3.7866 2.44367 5.21809 2.44562 6.10423 3.33332C6.99076 4.22181 6.99154 5.65212 6.1054 6.53905Z" fill="white"/>
</g>
<defs>
<clipPath id="clip0_827_675">
<rect width="9" height="13.3722" fill="white" transform="translate(0 0.435303)"/>
</clipPath>
</defs>
</svg>
