<svg width="16" height="29" viewBox="0 0 16 29" fill="none" xmlns="http://www.w3.org/2000/svg">
<path d="M0 14.1898V23.9737C0 26.4907 2.04745 28.5371 4.56436 28.5371C7.08127 28.5371 9.12771 26.4896 9.12771 23.9737V4.56335C9.12771 3.29026 10.1636 2.25442 11.4366 2.25442C12.7097 2.25442 13.7456 3.29026 13.7456 4.56335V14.1898H16V4.56335C16 2.04745 13.9525 0 11.4366 0C8.92075 0 6.8733 2.04745 6.8733 4.56335V23.9737C6.8733 25.2468 5.83746 26.2827 4.56436 26.2827C3.29127 26.2827 2.25543 25.2468 2.25543 23.9737V14.1898H0Z" fill="black"/>
</svg>
