<svg width="144" height="144" viewBox="0 0 144 144" fill="none" xmlns="http://www.w3.org/2000/svg">
<circle cx="72" cy="72" r="72" fill="black"/>
<path d="M69.9222 88.9985C66.6488 88.9925 63.8474 88.6489 61.0936 87.9526C56.2184 86.7199 51.8122 84.5191 47.8247 81.4396C45.203 79.4151 42.9985 76.9692 40.7746 74.5367C40.2313 73.942 39.688 73.3474 39.1357 72.7617C38.9665 72.5824 38.9472 72.4464 39.1253 72.2581C41.0953 70.1678 42.9955 68.0043 45.0427 65.9932C48.1988 62.8928 51.8627 60.5231 55.9274 58.7884C57.9775 57.9144 60.0915 57.242 62.2664 56.7773C65.8323 56.0168 69.4367 55.7972 73.0635 56.1946C79.8033 56.9312 85.838 59.4264 91.2046 63.5906C93.574 65.4299 95.6152 67.6009 97.6253 69.8107C98.3676 70.6265 99.1128 71.4393 99.864 72.2462C100.03 72.4255 100.055 72.5599 99.8759 72.7497C97.459 75.3032 95.2233 78.0345 92.5378 80.325C89.0179 83.3267 85.0987 85.6188 80.7237 87.1189C77.0807 88.368 73.3337 88.9746 69.9222 89V88.9985Z" fill="#FFCC48" stroke="#FFCC48" stroke-width="1.77597" stroke-miterlimit="10"/>
<path d="M75.5078 66.4985C78.8285 69.8265 78.8315 75.1842 75.5122 78.5065C72.1842 81.8375 66.8061 81.8302 63.4781 78.4904C60.1647 75.1638 60.175 69.8061 63.503 66.4838C66.8266 63.166 72.1886 63.1733 75.5078 66.4985Z" fill="black" stroke="black" stroke-width="2" stroke-miterlimit="10"/>
</svg>
