<svg width="75" height="41" viewBox="0 0 75 41" fill="none" xmlns="http://www.w3.org/2000/svg">
<g clip-path="url(#clip0_530_4450)">
<path d="M37.8776 40.1119C33.9616 40.1048 30.6104 39.6963 27.3159 38.8687C21.4837 37.4035 16.2126 34.7875 11.4423 31.1272C8.30598 28.7208 5.66866 25.8135 3.00826 22.9223C2.35826 22.2154 1.70826 21.5086 1.0476 20.8124C0.845135 20.5993 0.822047 20.4377 1.03516 20.2139C3.39187 17.7293 5.66511 15.1577 8.11417 12.7673C11.8899 9.08214 16.273 6.26546 21.1356 4.20356C23.5882 3.16462 26.1172 2.36543 28.719 1.8131C32.9848 0.909136 37.2969 0.648068 41.6356 1.12048C49.6985 1.99603 56.9178 4.9619 63.3379 9.91152C66.1723 12.0977 68.6143 14.6782 71.019 17.3049C71.9069 18.2746 72.7985 19.2407 73.6971 20.1997C73.896 20.4128 73.9262 20.5727 73.7113 20.7982C70.8201 23.8333 68.1454 27.0798 64.9327 29.8024C60.7219 33.3703 56.0333 36.0946 50.7996 37.8777C46.4413 39.3624 41.9588 40.0834 37.8776 40.1136V40.1119Z" stroke="white" stroke-width="1.77597" stroke-miterlimit="10"/>
<path d="M44.6725 13.2098C48.7057 17.2519 48.7093 23.759 44.6778 27.794C40.6357 31.8397 34.1037 31.8308 30.0616 27.7745C26.0373 23.7342 26.0497 17.227 30.0918 13.192C34.1286 9.16233 40.641 9.17121 44.6725 13.2098Z" fill="black" stroke="white" stroke-width="2" stroke-miterlimit="10"/>
</g>
<defs>
<clipPath id="clip0_530_4450">
<rect width="74.7487" height="41" fill="white"/>
</clipPath>
</defs>
</svg>
